<svg xmlns="http://www.w3.org/2000/svg" xmlns:xlink="http://www.w3.org/1999/xlink" width="72" zoomAndPan="magnify" viewBox="0 0 54 54" height="72" preserveAspectRatio="xMidYMid meet" version="1.0"><defs><clipPath id="0513abb82a"><path d="M 1.484375 1.203125 L 52.292969 1.203125 L 52.292969 52 L 1.484375 52 Z M 1.484375 1.203125 " clip-rule="nonzero"/></clipPath></defs><g clip-path="url(#0513abb82a)"><path fill="#000000" d="M 11.667969 42.832031 L 12.246094 43.402344 L 12.300781 43.460938 C 14.101562 45.320312 14.082031 48.320312 12.246094 50.15625 C 10.410156 51.992188 7.410156 52.011719 5.550781 50.214844 L 5.492188 50.15625 L 4.914062 49.582031 L 3.339844 48.003906 C 1.484375 46.148438 1.484375 43.113281 3.339844 41.25 C 5.195312 39.394531 8.238281 39.394531 10.09375 41.25 Z M 43.523438 16.703125 L 44.082031 16.144531 L 44.722656 15.5 L 50.609375 9.613281 C 52.464844 7.757812 52.464844 4.722656 50.609375 2.859375 C 48.746094 1.003906 45.710938 1.003906 43.855469 2.859375 L 37.96875 8.746094 L 37.328125 9.390625 L 36.769531 9.949219 L 33.390625 13.324219 C 31.535156 15.179688 31.535156 18.21875 33.390625 20.078125 L 36.769531 23.457031 L 37.371094 24.050781 L 43.898438 30.582031 C 45.753906 32.4375 48.792969 32.4375 50.652344 30.582031 C 52.507812 28.726562 52.507812 25.683594 50.652344 23.828125 L 44.125 17.300781 Z M 3.609375 2.90625 L 3.609375 2.898438 C 5.464844 1.042969 8.507812 1.042969 10.363281 2.898438 L 50.5625 43.105469 C 52.425781 44.960938 52.425781 48.003906 50.5625 49.859375 C 48.707031 51.714844 45.671875 51.714844 43.808594 49.859375 L 3.609375 9.652344 C 1.753906 7.796875 1.753906 4.761719 3.609375 2.90625 Z M 3.550781 22.152344 C 5.40625 20.296875 8.445312 20.296875 10.304688 22.152344 L 31.316406 43.164062 C 33.171875 45.019531 33.171875 48.0625 31.316406 49.917969 C 29.457031 51.773438 26.417969 51.773438 24.5625 49.917969 L 3.550781 28.90625 C 1.695312 27.050781 1.695312 24.007812 3.550781 22.152344 Z M 3.550781 22.152344 " fill-opacity="1" fill-rule="evenodd"/></g></svg>