<svg xmlns="http://www.w3.org/2000/svg" xmlns:xlink="http://www.w3.org/1999/xlink" width="600" zoomAndPan="magnify" viewBox="0 0 450 149.999998" height="200" preserveAspectRatio="xMidYMid meet" version="1.0"><defs><g/></defs><g fill="#000000" fill-opacity="1"><g transform="translate(39.200814, 104.140031)"><g><path d="M 4.984375 -61.265625 L 16.5 -61.265625 C 21.1875 -61.265625 24.410156 -59.820312 26.171875 -56.9375 C 27.941406 -54.050781 28.828125 -49.945312 28.828125 -44.625 L 28.859375 -17.71875 C 28.859375 -11.425781 27.894531 -6.898438 25.96875 -4.140625 C 24.039062 -1.378906 20.800781 0 16.25 0 L 4.984375 0 Z M 21.65625 -44.796875 C 21.65625 -48.628906 21.203125 -51.378906 20.296875 -53.046875 C 19.390625 -54.722656 17.90625 -55.5625 15.84375 -55.5625 L 12.15625 -55.5625 L 12.15625 -5.8125 L 15.84375 -5.8125 C 17.226562 -5.8125 18.316406 -6.09375 19.109375 -6.65625 C 20.804688 -7.851562 21.65625 -11.171875 21.65625 -16.609375 Z M 21.65625 -44.796875 "/></g></g></g><g fill="#000000" fill-opacity="1"><g transform="translate(79.009341, 104.140031)"><g><path d="M 11.59375 -61.265625 L 20.265625 -61.265625 L 30.390625 0 L 23.609375 0 L 21.859375 -11.703125 L 10.75 -11.703125 L 9.15625 0 L 2.296875 0 Z M 11.5625 -17.546875 L 20.953125 -17.546875 L 16.125 -49.921875 L 16.015625 -49.921875 Z M 11.5625 -17.546875 "/></g></g></g><g fill="#000000" fill-opacity="1"><g transform="translate(118.469775, 104.140031)"><g><path d="M 23.921875 -61.265625 L 30.28125 -61.265625 L 30.28125 0 L 25 0 L 11.25 -42.046875 L 11.65625 -26.59375 L 11.65625 0 L 5.015625 0 L 5.015625 -61.265625 L 10.4375 -61.265625 L 24.640625 -19.5625 L 23.921875 -37.28125 Z M 23.921875 -61.265625 "/></g></g></g><g fill="#000000" fill-opacity="1"><g transform="translate(160.540906, 104.140031)"><g><path d="M 4.3125 -43.578125 C 4.3125 -48.222656 4.691406 -51.632812 5.453125 -53.8125 C 6.222656 -56 7.0625 -57.601562 7.96875 -58.625 C 9.945312 -60.851562 12.828125 -61.976562 16.609375 -62 C 21.898438 -61.976562 25.3125 -59.644531 26.84375 -55 C 27.71875 -52.332031 28.15625 -48.785156 28.15625 -44.359375 L 28.15625 -37.5625 L 21.09375 -37.5625 L 21.09375 -44.390625 C 21.09375 -48.304688 20.878906 -50.953125 20.453125 -52.328125 C 20.023438 -53.710938 19.507812 -54.628906 18.90625 -55.078125 C 18.300781 -55.535156 17.535156 -55.765625 16.609375 -55.765625 C 14.679688 -55.765625 13.347656 -54.851562 12.609375 -53.03125 C 11.878906 -51.207031 11.515625 -48.335938 11.515625 -44.421875 L 11.515625 -17.890625 C 11.515625 -13.253906 11.84375 -10.007812 12.5 -8.15625 C 13.164062 -6.3125 14.445312 -5.390625 16.34375 -5.390625 C 18.238281 -5.390625 19.503906 -6.316406 20.140625 -8.171875 C 20.773438 -10.035156 21.09375 -13.285156 21.09375 -17.921875 L 21.09375 -24.71875 L 28.234375 -24.71875 L 28.234375 -18 C 28.234375 -11.570312 27.351562 -6.84375 25.59375 -3.8125 C 23.84375 -0.78125 20.785156 0.734375 16.421875 0.734375 C 12.066406 0.734375 8.957031 -0.828125 7.09375 -3.953125 C 5.238281 -7.078125 4.3125 -11.78125 4.3125 -18.0625 Z M 4.3125 -43.578125 "/></g></g></g><g fill="#000000" fill-opacity="1"><g transform="translate(199.270345, 104.140031)"><g><path d="M 5.015625 -61.265625 L 23.328125 -61.265625 L 23.328125 -55.28125 L 12.21875 -55.28125 L 12.21875 -34.328125 L 22.734375 -34.328125 L 22.734375 -28.34375 L 12.21875 -28.34375 L 12.21875 -5.984375 L 23.46875 -5.984375 L 23.46875 0 L 5.015625 0 Z M 5.015625 -61.265625 "/></g></g></g><g fill="#000000" fill-opacity="1"><g transform="translate(232.882826, 104.140031)"><g><path d="M 4.984375 -61.265625 L 23.421875 -61.265625 L 23.421875 -55.25 L 12.15625 -55.25 L 12.15625 -35.890625 L 22.734375 -35.890625 L 22.734375 -29.796875 L 12.15625 -29.796875 L 12.15625 0 L 4.984375 0 Z M 4.984375 -61.265625 "/></g></g></g><g fill="#000000" fill-opacity="1"><g transform="translate(265.625075, 104.140031)"><g><path d="M 4.3125 -44.625 C 4.3125 -51.59375 5.566406 -56.375 8.078125 -58.96875 C 10.046875 -61.007812 12.910156 -62.03125 16.671875 -62.03125 C 22.148438 -62.03125 25.65625 -59.78125 27.1875 -55.28125 C 28.09375 -52.613281 28.546875 -49.0625 28.546875 -44.625 L 28.546875 -17.609375 C 28.546875 -11.234375 27.648438 -6.585938 25.859375 -3.671875 C 24.078125 -0.753906 20.953125 0.703125 16.484375 0.703125 C 12.015625 0.703125 8.867188 -0.757812 7.046875 -3.6875 C 5.222656 -6.613281 4.3125 -11.253906 4.3125 -17.609375 Z M 21.34375 -45.046875 C 21.34375 -48.972656 21.023438 -51.753906 20.390625 -53.390625 C 19.765625 -55.023438 18.5 -55.84375 16.59375 -55.84375 C 14.695312 -55.84375 13.375 -55.003906 12.625 -53.328125 C 11.882812 -51.660156 11.515625 -48.910156 11.515625 -45.078125 L 11.515625 -17.546875 C 11.515625 -12.878906 11.835938 -9.703125 12.484375 -8.015625 C 13.140625 -6.335938 14.453125 -5.5 16.421875 -5.5 C 18.398438 -5.5 19.710938 -6.351562 20.359375 -8.0625 C 21.015625 -9.769531 21.34375 -12.929688 21.34375 -17.546875 Z M 21.34375 -45.046875 "/></g></g></g><g fill="#000000" fill-opacity="1"><g transform="translate(305.259563, 104.140031)"><g><path d="M 5.015625 -61.265625 L 17.859375 -61.265625 C 21.503906 -61.265625 24.125 -60.507812 25.71875 -59 C 27.320312 -57.5 28.285156 -54.9375 28.609375 -51.3125 C 28.753906 -49.832031 28.828125 -47.519531 28.828125 -44.375 C 28.828125 -41.226562 28.414062 -38.585938 27.59375 -36.453125 C 26.769531 -34.316406 25.3125 -32.9375 23.21875 -32.3125 C 24.75 -32.050781 25.910156 -31.238281 26.703125 -29.875 C 27.492188 -28.519531 28.050781 -26.363281 28.375 -23.40625 C 28.695312 -20.445312 28.859375 -16.050781 28.859375 -10.21875 C 28.859375 -4.382812 29.046875 -0.976562 29.421875 0 L 22.25 0 C 21.875 -0.738281 21.6875 -7.617188 21.6875 -20.640625 C 21.6875 -25.023438 21.253906 -27.570312 20.390625 -28.28125 C 19.535156 -28.988281 18.238281 -29.34375 16.5 -29.34375 L 12.21875 -29.59375 L 12.21875 0 L 5.015625 0 Z M 21.6875 -46.265625 C 21.6875 -50.972656 21.257812 -53.695312 20.40625 -54.4375 C 19.5625 -55.1875 18.34375 -55.5625 16.75 -55.5625 L 12.21875 -55.5625 L 12.21875 -34.875 L 16.8125 -34.875 C 18.207031 -34.875 19.226562 -35.140625 19.875 -35.671875 C 20.53125 -36.210938 20.992188 -37.238281 21.265625 -38.75 C 21.546875 -40.257812 21.6875 -42.625 21.6875 -45.84375 Z M 21.6875 -46.265625 "/></g></g></g><g fill="#000000" fill-opacity="1"><g transform="translate(345.207335, 104.140031)"><g><path d="M 4.3125 -43.578125 C 4.3125 -48.222656 4.691406 -51.632812 5.453125 -53.8125 C 6.222656 -56 7.0625 -57.601562 7.96875 -58.625 C 9.945312 -60.851562 12.828125 -61.976562 16.609375 -62 C 21.898438 -61.976562 25.3125 -59.644531 26.84375 -55 C 27.71875 -52.332031 28.15625 -48.785156 28.15625 -44.359375 L 28.15625 -37.5625 L 21.09375 -37.5625 L 21.09375 -44.390625 C 21.09375 -48.304688 20.878906 -50.953125 20.453125 -52.328125 C 20.023438 -53.710938 19.507812 -54.628906 18.90625 -55.078125 C 18.300781 -55.535156 17.535156 -55.765625 16.609375 -55.765625 C 14.679688 -55.765625 13.347656 -54.851562 12.609375 -53.03125 C 11.878906 -51.207031 11.515625 -48.335938 11.515625 -44.421875 L 11.515625 -17.890625 C 11.515625 -13.253906 11.84375 -10.007812 12.5 -8.15625 C 13.164062 -6.3125 14.445312 -5.390625 16.34375 -5.390625 C 18.238281 -5.390625 19.503906 -6.316406 20.140625 -8.171875 C 20.773438 -10.035156 21.09375 -13.285156 21.09375 -17.921875 L 21.09375 -24.71875 L 28.234375 -24.71875 L 28.234375 -18 C 28.234375 -11.570312 27.351562 -6.84375 25.59375 -3.8125 C 23.84375 -0.78125 20.785156 0.734375 16.421875 0.734375 C 12.066406 0.734375 8.957031 -0.828125 7.09375 -3.953125 C 5.238281 -7.078125 4.3125 -11.78125 4.3125 -18.0625 Z M 4.3125 -43.578125 "/></g></g></g><g fill="#000000" fill-opacity="1"><g transform="translate(383.936782, 104.140031)"><g><path d="M 5.015625 -61.265625 L 23.328125 -61.265625 L 23.328125 -55.28125 L 12.21875 -55.28125 L 12.21875 -34.328125 L 22.734375 -34.328125 L 22.734375 -28.34375 L 12.21875 -28.34375 L 12.21875 -5.984375 L 23.46875 -5.984375 L 23.46875 0 L 5.015625 0 Z M 5.015625 -61.265625 "/></g></g></g></svg>