<svg xmlns="http://www.w3.org/2000/svg" xmlns:xlink="http://www.w3.org/1999/xlink" width="600" zoomAndPan="magnify" viewBox="0 0 450 149.999998" height="200" preserveAspectRatio="xMidYMid meet" version="1.0"><defs><g/></defs><g fill="#000000" fill-opacity="1"><g transform="translate(10.981808, 104.025429)"><g><path d="M 5 -61.03125 L 12.171875 -61.03125 L 12.171875 -5.921875 L 23.4375 -5.921875 L 23.4375 0 L 5 0 Z M 5 -61.03125 "/></g></g></g><g fill="#000000" fill-opacity="1"><g transform="translate(42.416412, 104.025429)"><g><path d="M 5.546875 -61.03125 L 12.71875 -61.03125 L 12.71875 0 L 5.546875 0 Z M 5.546875 -61.03125 "/></g></g></g><g fill="#000000" fill-opacity="1"><g transform="translate(67.436626, 104.025429)"><g><path d="M 5.546875 -61.03125 L 16.578125 -61.03125 C 21.171875 -61.03125 24.296875 -59.984375 25.953125 -57.890625 C 27.609375 -55.796875 28.457031 -52.265625 28.5 -47.296875 L 28.5 -45.984375 C 28.5 -42.398438 28.160156 -39.578125 27.484375 -37.515625 C 26.816406 -35.460938 25.617188 -33.972656 23.890625 -33.046875 C 27.640625 -31.515625 29.515625 -26.625 29.515625 -18.375 L 29.515625 -17.09375 C 29.441406 -10.988281 28.515625 -6.613281 26.734375 -3.96875 C 24.953125 -1.320312 21.863281 0 17.46875 0 L 5.546875 0 Z M 22.296875 -19.421875 C 22.296875 -23.347656 21.972656 -26.097656 21.328125 -27.671875 C 20.679688 -29.242188 19.410156 -30.03125 17.515625 -30.03125 L 12.71875 -30.03125 L 12.71875 -5.796875 L 17.125 -5.796875 C 19.164062 -5.796875 20.535156 -6.59375 21.234375 -8.1875 C 21.941406 -9.78125 22.296875 -12.816406 22.296875 -17.296875 Z M 21.390625 -47.1875 C 21.390625 -47.257812 21.390625 -47.332031 21.390625 -47.40625 C 21.390625 -51.46875 20.6875 -53.867188 19.28125 -54.609375 C 18.582031 -54.984375 17.578125 -55.171875 16.265625 -55.171875 L 12.71875 -55.171875 L 12.71875 -35.546875 L 16.78125 -35.546875 C 18.164062 -35.546875 19.148438 -35.769531 19.734375 -36.21875 C 20.328125 -36.664062 20.75 -37.5625 21 -38.90625 C 21.257812 -40.25 21.390625 -42.445312 21.390625 -45.5 Z M 21.390625 -47.1875 "/></g></g></g><g fill="#000000" fill-opacity="1"><g transform="translate(107.192602, 104.025429)"><g><path d="M 5 -61.03125 L 17.78125 -61.03125 C 21.414062 -61.03125 24.03125 -60.273438 25.625 -58.765625 C 27.21875 -57.265625 28.175781 -54.710938 28.5 -51.109375 C 28.644531 -49.628906 28.71875 -47.320312 28.71875 -44.1875 C 28.71875 -41.0625 28.304688 -38.429688 27.484375 -36.296875 C 26.660156 -34.171875 25.207031 -32.796875 23.125 -32.171875 C 24.65625 -31.921875 25.8125 -31.117188 26.59375 -29.765625 C 27.382812 -28.410156 27.941406 -26.257812 28.265625 -23.3125 C 28.585938 -20.363281 28.75 -15.984375 28.75 -10.171875 C 28.75 -4.359375 28.929688 -0.96875 29.296875 0 L 22.15625 0 C 21.789062 -0.738281 21.609375 -7.59375 21.609375 -20.5625 C 21.609375 -24.925781 21.175781 -27.460938 20.3125 -28.171875 C 19.457031 -28.878906 18.164062 -29.234375 16.4375 -29.234375 L 12.171875 -29.46875 L 12.171875 0 L 5 0 Z M 21.609375 -46.078125 C 21.609375 -50.773438 21.1875 -53.492188 20.34375 -54.234375 C 19.5 -54.972656 18.273438 -55.34375 16.671875 -55.34375 L 12.171875 -55.34375 L 12.171875 -34.75 L 16.75 -34.75 C 18.132812 -34.75 19.148438 -35.015625 19.796875 -35.546875 C 20.441406 -36.078125 20.90625 -37.09375 21.1875 -38.59375 C 21.46875 -40.09375 21.609375 -42.453125 21.609375 -45.671875 Z M 21.609375 -46.078125 "/></g></g></g><g fill="#000000" fill-opacity="1"><g transform="translate(146.983251, 104.025429)"><g><path d="M 11.546875 -61.03125 L 20.1875 -61.03125 L 30.265625 0 L 23.515625 0 L 21.78125 -11.65625 L 10.71875 -11.65625 L 9.125 0 L 2.28125 0 Z M 11.515625 -17.46875 L 20.875 -17.46875 L 16.0625 -49.71875 L 15.953125 -49.71875 Z M 11.515625 -17.46875 "/></g></g></g><g fill="#000000" fill-opacity="1"><g transform="translate(186.288494, 104.025429)"><g><path d="M 5 -61.03125 L 17.78125 -61.03125 C 21.414062 -61.03125 24.03125 -60.273438 25.625 -58.765625 C 27.21875 -57.265625 28.175781 -54.710938 28.5 -51.109375 C 28.644531 -49.628906 28.71875 -47.320312 28.71875 -44.1875 C 28.71875 -41.0625 28.304688 -38.429688 27.484375 -36.296875 C 26.660156 -34.171875 25.207031 -32.796875 23.125 -32.171875 C 24.65625 -31.921875 25.8125 -31.117188 26.59375 -29.765625 C 27.382812 -28.410156 27.941406 -26.257812 28.265625 -23.3125 C 28.585938 -20.363281 28.75 -15.984375 28.75 -10.171875 C 28.75 -4.359375 28.929688 -0.96875 29.296875 0 L 22.15625 0 C 21.789062 -0.738281 21.609375 -7.59375 21.609375 -20.5625 C 21.609375 -24.925781 21.175781 -27.460938 20.3125 -28.171875 C 19.457031 -28.878906 18.164062 -29.234375 16.4375 -29.234375 L 12.171875 -29.46875 L 12.171875 0 L 5 0 Z M 21.609375 -46.078125 C 21.609375 -50.773438 21.1875 -53.492188 20.34375 -54.234375 C 19.5 -54.972656 18.273438 -55.34375 16.671875 -55.34375 L 12.171875 -55.34375 L 12.171875 -34.75 L 16.75 -34.75 C 18.132812 -34.75 19.148438 -35.015625 19.796875 -35.546875 C 20.441406 -36.078125 20.90625 -37.09375 21.1875 -38.59375 C 21.46875 -40.09375 21.609375 -42.453125 21.609375 -45.671875 Z M 21.609375 -46.078125 "/></g></g></g><g fill="#000000" fill-opacity="1"><g transform="translate(226.079151, 104.025429)"><g><path d="M 21.296875 -61.03125 L 28.328125 -61.03125 L 18.484375 -25.625 L 18.484375 0 L 11.296875 0 L 11.296875 -25.625 L 0.6875 -61.03125 L 7.65625 -61.03125 L 14.875 -36.0625 L 15.015625 -36.0625 Z M 21.296875 -61.03125 "/></g></g></g><g fill="#000000" fill-opacity="1"><g transform="translate(261.813138, 104.025429)"><g><path d="M 4.953125 -61.03125 L 23.34375 -61.03125 L 23.34375 -55.03125 L 12.109375 -55.03125 L 12.109375 -35.75 L 22.640625 -35.75 L 22.640625 -29.6875 L 12.109375 -29.6875 L 12.109375 0 L 4.953125 0 Z M 4.953125 -61.03125 "/></g></g></g><g fill="#000000" fill-opacity="1"><g transform="translate(294.426611, 104.025429)"><g><path d="M 4.296875 -44.453125 C 4.296875 -51.390625 5.546875 -56.148438 8.046875 -58.734375 C 10.003906 -60.773438 12.859375 -61.796875 16.609375 -61.796875 C 22.066406 -61.796875 25.554688 -59.550781 27.078125 -55.0625 C 27.984375 -52.40625 28.4375 -48.867188 28.4375 -44.453125 L 28.4375 -17.546875 C 28.4375 -11.191406 27.546875 -6.5625 25.765625 -3.65625 C 23.984375 -0.757812 20.867188 0.6875 16.421875 0.6875 C 11.972656 0.6875 8.835938 -0.765625 7.015625 -3.671875 C 5.203125 -6.585938 4.296875 -11.210938 4.296875 -17.546875 Z M 21.25 -44.875 C 21.25 -48.78125 20.9375 -51.546875 20.3125 -53.171875 C 19.695312 -54.804688 18.441406 -55.625 16.546875 -55.625 C 14.648438 -55.625 13.332031 -54.789062 12.59375 -53.125 C 11.851562 -51.457031 11.484375 -48.71875 11.484375 -44.90625 L 11.484375 -17.46875 C 11.484375 -12.820312 11.804688 -9.660156 12.453125 -7.984375 C 13.097656 -6.316406 14.398438 -5.484375 16.359375 -5.484375 C 18.328125 -5.484375 19.632812 -6.332031 20.28125 -8.03125 C 20.925781 -9.726562 21.25 -12.875 21.25 -17.46875 Z M 21.25 -44.875 "/></g></g></g><g fill="#000000" fill-opacity="1"><g transform="translate(333.905216, 104.025429)"><g><path d="M 5 -61.03125 L 17.78125 -61.03125 C 21.414062 -61.03125 24.03125 -60.273438 25.625 -58.765625 C 27.21875 -57.265625 28.175781 -54.710938 28.5 -51.109375 C 28.644531 -49.628906 28.71875 -47.320312 28.71875 -44.1875 C 28.71875 -41.0625 28.304688 -38.429688 27.484375 -36.296875 C 26.660156 -34.171875 25.207031 -32.796875 23.125 -32.171875 C 24.65625 -31.921875 25.8125 -31.117188 26.59375 -29.765625 C 27.382812 -28.410156 27.941406 -26.257812 28.265625 -23.3125 C 28.585938 -20.363281 28.75 -15.984375 28.75 -10.171875 C 28.75 -4.359375 28.929688 -0.96875 29.296875 0 L 22.15625 0 C 21.789062 -0.738281 21.609375 -7.59375 21.609375 -20.5625 C 21.609375 -24.925781 21.175781 -27.460938 20.3125 -28.171875 C 19.457031 -28.878906 18.164062 -29.234375 16.4375 -29.234375 L 12.171875 -29.46875 L 12.171875 0 L 5 0 Z M 21.609375 -46.078125 C 21.609375 -50.773438 21.1875 -53.492188 20.34375 -54.234375 C 19.5 -54.972656 18.273438 -55.34375 16.671875 -55.34375 L 12.171875 -55.34375 L 12.171875 -34.75 L 16.75 -34.75 C 18.132812 -34.75 19.148438 -35.015625 19.796875 -35.546875 C 20.441406 -36.078125 20.90625 -37.09375 21.1875 -38.59375 C 21.46875 -40.09375 21.609375 -42.453125 21.609375 -45.671875 Z M 21.609375 -46.078125 "/></g></g></g><g fill="#000000" fill-opacity="1"><g transform="translate(373.695873, 104.025429)"><g><path d="M 4.296875 -43.40625 C 4.296875 -48.03125 4.675781 -51.429688 5.4375 -53.609375 C 6.207031 -55.785156 7.039062 -57.378906 7.9375 -58.390625 C 9.90625 -60.609375 12.773438 -61.726562 16.546875 -61.75 C 21.816406 -61.726562 25.210938 -59.40625 26.734375 -54.78125 C 27.609375 -52.125 28.046875 -48.585938 28.046875 -44.171875 L 28.046875 -37.421875 L 21.015625 -37.421875 L 21.015625 -44.21875 C 21.015625 -48.125 20.800781 -50.765625 20.375 -52.140625 C 19.945312 -53.515625 19.429688 -54.425781 18.828125 -54.875 C 18.222656 -55.320312 17.460938 -55.546875 16.546875 -55.546875 C 14.617188 -55.546875 13.289062 -54.640625 12.5625 -52.828125 C 11.84375 -51.015625 11.484375 -48.15625 11.484375 -44.25 L 11.484375 -17.828125 C 11.484375 -13.203125 11.8125 -9.96875 12.46875 -8.125 C 13.125 -6.289062 14.394531 -5.375 16.28125 -5.375 C 18.164062 -5.375 19.425781 -6.296875 20.0625 -8.140625 C 20.695312 -9.992188 21.015625 -13.234375 21.015625 -17.859375 L 21.015625 -24.625 L 28.125 -24.625 L 28.125 -17.921875 C 28.125 -11.523438 27.25 -6.816406 25.5 -3.796875 C 23.757812 -0.773438 20.710938 0.734375 16.359375 0.734375 C 12.015625 0.734375 8.914062 -0.816406 7.0625 -3.921875 C 5.21875 -7.035156 4.296875 -11.726562 4.296875 -18 Z M 4.296875 -43.40625 "/></g></g></g><g fill="#000000" fill-opacity="1"><g transform="translate(412.272996, 104.025429)"><g><path d="M 5 -61.03125 L 23.234375 -61.03125 L 23.234375 -55.0625 L 12.171875 -55.0625 L 12.171875 -34.1875 L 22.640625 -34.1875 L 22.640625 -28.21875 L 12.171875 -28.21875 L 12.171875 -5.96875 L 23.375 -5.96875 L 23.375 0 L 5 0 Z M 5 -61.03125 "/></g></g></g></svg>