<svg xmlns="http://www.w3.org/2000/svg" xmlns:xlink="http://www.w3.org/1999/xlink" width="500" zoomAndPan="magnify" viewBox="0 0 375 374.999991" height="500" preserveAspectRatio="xMidYMid meet" version="1.0"><defs><g/><clipPath id="616087f920"><path d="M 37.496094 165.515625 L 81.746094 165.515625 L 81.746094 209.765625 L 37.496094 209.765625 Z M 37.496094 165.515625 " clip-rule="nonzero"/></clipPath></defs><g clip-path="url(#616087f920)"><path fill="#ffffff" d="M 46.328125 201.800781 L 46.828125 202.296875 L 46.878906 202.347656 C 48.4375 203.960938 48.421875 206.5625 46.828125 208.15625 C 45.238281 209.75 42.636719 209.765625 41.023438 208.207031 L 40.972656 208.15625 L 40.472656 207.660156 L 39.109375 206.289062 C 37.5 204.679688 37.5 202.046875 39.109375 200.429688 C 40.71875 198.820312 43.355469 198.820312 44.964844 200.429688 Z M 73.949219 179.132812 L 74.992188 178.089844 L 80.09375 172.984375 C 81.703125 171.375 81.703125 168.738281 80.09375 167.125 C 78.480469 165.515625 75.847656 165.515625 74.238281 167.125 L 69.136719 172.230469 L 65.164062 176.203125 C 63.558594 177.8125 63.558594 180.445312 65.164062 182.0625 L 68.09375 184.992188 L 68.617188 185.507812 L 74.277344 191.175781 C 75.886719 192.785156 78.519531 192.785156 80.132812 191.175781 C 81.742188 189.5625 81.742188 186.925781 80.132812 185.316406 L 74.472656 179.652344 Z M 39.34375 167.164062 L 39.34375 167.15625 C 40.953125 165.546875 43.589844 165.546875 45.199219 167.15625 L 80.054688 202.039062 C 81.671875 203.648438 81.671875 206.289062 80.054688 207.898438 C 78.449219 209.507812 75.816406 209.507812 74.199219 207.898438 L 39.34375 173.015625 C 37.734375 171.40625 37.734375 168.773438 39.34375 167.164062 Z M 39.292969 183.859375 C 40.902344 182.25 43.535156 182.25 45.148438 183.859375 L 49.117188 187.832031 L 57.707031 196.425781 L 63.367188 202.089844 C 64.976562 203.699219 64.976562 206.339844 63.367188 207.949219 C 61.753906 209.558594 59.121094 209.558594 57.511719 207.949219 L 51.851562 202.285156 L 43.261719 193.691406 L 39.292969 189.71875 C 37.683594 188.109375 37.683594 185.46875 39.292969 183.859375 Z M 39.292969 183.859375 " fill-opacity="1" fill-rule="evenodd"/></g><g fill="#ffffff" fill-opacity="1"><g transform="translate(90.943272, 197.760369)"><g><path d="M 13.71875 0.4375 C 11.289062 0.4375 9.171875 -0.109375 7.359375 -1.203125 C 5.554688 -2.304688 4.15625 -3.84375 3.15625 -5.8125 C 2.15625 -7.78125 1.65625 -10.070312 1.65625 -12.6875 C 1.65625 -15.332031 2.171875 -17.660156 3.203125 -19.671875 C 4.242188 -21.691406 5.722656 -23.269531 7.640625 -24.40625 C 9.566406 -25.539062 11.847656 -26.109375 14.484375 -26.109375 C 17.492188 -26.109375 19.988281 -25.382812 21.96875 -23.9375 C 23.945312 -22.5 25.226562 -20.507812 25.8125 -17.96875 L 20.578125 -17.96875 C 20.179688 -19.164062 19.46875 -20.097656 18.4375 -20.765625 C 17.414062 -21.441406 16.097656 -21.78125 14.484375 -21.78125 C 11.921875 -21.78125 9.941406 -20.96875 8.546875 -19.34375 C 7.148438 -17.71875 6.453125 -15.488281 6.453125 -12.65625 C 6.453125 -9.8125 7.140625 -7.613281 8.515625 -6.0625 C 9.898438 -4.507812 11.78125 -3.734375 14.15625 -3.734375 C 16.476562 -3.734375 18.234375 -4.363281 19.421875 -5.625 C 20.609375 -6.882812 21.320312 -8.539062 21.5625 -10.59375 L 15.078125 -10.59375 L 15.078125 -14.125 L 26.296875 -14.125 L 26.296875 0 L 21.96875 0 L 21.59375 -3.375 C 20.769531 -2.15625 19.734375 -1.210938 18.484375 -0.546875 C 17.234375 0.109375 15.644531 0.4375 13.71875 0.4375 Z M 13.71875 0.4375 "/></g></g></g><g fill="#ffffff" fill-opacity="1"><g transform="translate(124.968986, 197.760369)"><g><path d="M 9.125 0 L 9.125 -9.125 L 0.515625 -25.671875 L 5.828125 -25.671875 L 11.515625 -13.828125 L 17.15625 -25.671875 L 22.40625 -25.671875 L 13.828125 -9.125 L 13.828125 0 Z M 9.125 0 "/></g></g></g><g fill="#ffffff" fill-opacity="1"><g transform="translate(153.568744, 197.760369)"><g><path d="M 2.5 0 L 2.5 -25.671875 L 8.0625 -25.671875 L 16.25 -9.390625 L 24.3125 -25.671875 L 29.890625 -25.671875 L 29.890625 0 L 25.1875 0 L 25.1875 -17.71875 L 18.046875 -3.671875 L 14.34375 -3.671875 L 7.1875 -17.71875 L 7.1875 0 Z M 2.5 0 "/></g></g></g><g fill="#ffffff" fill-opacity="1"><g transform="translate(191.627256, 197.760369)"><g><path d="M 2.5 0 L 2.5 -25.671875 L 19.0625 -25.671875 L 19.0625 -21.890625 L 7.1875 -21.890625 L 7.1875 -14.703125 L 16.796875 -14.703125 L 16.796875 -11 L 7.1875 -11 L 7.1875 0 Z M 2.5 0 "/></g></g></g><g fill="#ffffff" fill-opacity="1"><g transform="translate(217.514056, 197.760369)"><g><path d="M 14.515625 0.4375 C 11.953125 0.4375 9.707031 -0.125 7.78125 -1.25 C 5.863281 -2.375 4.363281 -3.929688 3.28125 -5.921875 C 2.195312 -7.910156 1.65625 -10.210938 1.65625 -12.828125 C 1.65625 -15.453125 2.195312 -17.757812 3.28125 -19.75 C 4.363281 -21.738281 5.863281 -23.296875 7.78125 -24.421875 C 9.707031 -25.546875 11.953125 -26.109375 14.515625 -26.109375 C 17.066406 -26.109375 19.304688 -25.546875 21.234375 -24.421875 C 23.160156 -23.296875 24.660156 -21.738281 25.734375 -19.75 C 26.816406 -17.757812 27.359375 -15.453125 27.359375 -12.828125 C 27.359375 -10.210938 26.816406 -7.910156 25.734375 -5.921875 C 24.660156 -3.929688 23.160156 -2.375 21.234375 -1.25 C 19.304688 -0.125 17.066406 0.4375 14.515625 0.4375 Z M 14.515625 -3.78125 C 16.960938 -3.78125 18.910156 -4.585938 20.359375 -6.203125 C 21.816406 -7.816406 22.546875 -10.023438 22.546875 -12.828125 C 22.546875 -15.640625 21.816406 -17.851562 20.359375 -19.46875 C 18.910156 -21.082031 16.960938 -21.890625 14.515625 -21.890625 C 12.078125 -21.890625 10.125 -21.082031 8.65625 -19.46875 C 7.1875 -17.851562 6.453125 -15.640625 6.453125 -12.828125 C 6.453125 -10.023438 7.1875 -7.816406 8.65625 -6.203125 C 10.125 -4.585938 12.078125 -3.78125 14.515625 -3.78125 Z M 14.515625 -3.78125 "/></g></g></g><g fill="#ffffff" fill-opacity="1"><g transform="translate(252.199689, 197.760369)"><g><path d="M 2.5 0 L 2.5 -25.671875 L 11.921875 -25.671875 C 13.972656 -25.671875 15.664062 -25.320312 17 -24.625 C 18.332031 -23.925781 19.328125 -22.984375 19.984375 -21.796875 C 20.640625 -20.609375 20.96875 -19.296875 20.96875 -17.859375 C 20.96875 -16.296875 20.554688 -14.863281 19.734375 -13.5625 C 18.921875 -12.269531 17.648438 -11.332031 15.921875 -10.75 L 21.234375 0 L 15.84375 0 L 11.078125 -10.125 L 7.1875 -10.125 L 7.1875 0 Z M 7.1875 -13.5625 L 11.625 -13.5625 C 13.1875 -13.5625 14.332031 -13.941406 15.0625 -14.703125 C 15.800781 -15.460938 16.171875 -16.46875 16.171875 -17.71875 C 16.171875 -18.9375 15.8125 -19.910156 15.09375 -20.640625 C 14.375 -21.378906 13.207031 -21.75 11.59375 -21.75 L 7.1875 -21.75 Z M 7.1875 -13.5625 "/></g></g></g><g fill="#ffffff" fill-opacity="1"><g transform="translate(280.72614, 197.760369)"><g><path d="M 14.125 0.4375 C 11.53125 0.4375 9.300781 -0.113281 7.4375 -1.21875 C 5.582031 -2.332031 4.15625 -3.882812 3.15625 -5.875 C 2.15625 -7.875 1.65625 -10.179688 1.65625 -12.796875 C 1.65625 -15.410156 2.15625 -17.71875 3.15625 -19.71875 C 4.15625 -21.726562 5.582031 -23.296875 7.4375 -24.421875 C 9.300781 -25.546875 11.53125 -26.109375 14.125 -26.109375 C 17.195312 -26.109375 19.71875 -25.34375 21.6875 -23.8125 C 23.65625 -22.289062 24.882812 -20.144531 25.375 -17.375 L 20.203125 -17.375 C 19.890625 -18.769531 19.210938 -19.863281 18.171875 -20.65625 C 17.128906 -21.457031 15.753906 -21.859375 14.046875 -21.859375 C 11.671875 -21.859375 9.8125 -21.050781 8.46875 -19.4375 C 7.125 -17.820312 6.453125 -15.609375 6.453125 -12.796875 C 6.453125 -9.984375 7.125 -7.773438 8.46875 -6.171875 C 9.8125 -4.578125 11.671875 -3.78125 14.046875 -3.78125 C 15.753906 -3.78125 17.128906 -4.148438 18.171875 -4.890625 C 19.210938 -5.640625 19.890625 -6.675781 20.203125 -8 L 25.375 -8 C 24.882812 -5.351562 23.65625 -3.285156 21.6875 -1.796875 C 19.71875 -0.304688 17.195312 0.4375 14.125 0.4375 Z M 14.125 0.4375 "/></g></g></g><g fill="#ffffff" fill-opacity="1"><g transform="translate(313.432043, 197.760369)"><g><path d="M 2.5 0 L 2.5 -25.671875 L 19.25 -25.671875 L 19.25 -21.890625 L 7.1875 -21.890625 L 7.1875 -14.859375 L 18.15625 -14.859375 L 18.15625 -11.1875 L 7.1875 -11.1875 L 7.1875 -3.78125 L 19.25 -3.78125 L 19.25 0 Z M 2.5 0 "/></g></g></g></svg>