<svg xmlns="http://www.w3.org/2000/svg" xmlns:xlink="http://www.w3.org/1999/xlink" width="500" zoomAndPan="magnify" viewBox="0 0 375 374.999991" height="500" preserveAspectRatio="xMidYMid meet" version="1.0"><defs><g/><clipPath id="8cf8840e50"><path d="M 37.503906 165 L 81 165 L 81 208 L 37.503906 208 Z M 37.503906 165 " clip-rule="nonzero"/></clipPath></defs><g fill="#000000" fill-opacity="1"><g transform="translate(88.063509, 198.358854)"><g><path d="M 14.09375 0.453125 C 11.601562 0.453125 9.425781 -0.109375 7.5625 -1.234375 C 5.707031 -2.367188 4.265625 -3.945312 3.234375 -5.96875 C 2.210938 -7.988281 1.703125 -10.347656 1.703125 -13.046875 C 1.703125 -15.753906 2.234375 -18.144531 3.296875 -20.21875 C 4.367188 -22.289062 5.890625 -23.910156 7.859375 -25.078125 C 9.828125 -26.242188 12.171875 -26.828125 14.890625 -26.828125 C 17.972656 -26.828125 20.53125 -26.085938 22.5625 -24.609375 C 24.601562 -23.128906 25.925781 -21.082031 26.53125 -18.46875 L 21.140625 -18.46875 C 20.742188 -19.695312 20.015625 -20.65625 18.953125 -21.34375 C 17.898438 -22.039062 16.546875 -22.390625 14.890625 -22.390625 C 12.242188 -22.390625 10.207031 -21.550781 8.78125 -19.875 C 7.351562 -18.207031 6.640625 -15.914062 6.640625 -13 C 6.640625 -10.082031 7.347656 -7.828125 8.765625 -6.234375 C 10.179688 -4.640625 12.109375 -3.84375 14.546875 -3.84375 C 16.929688 -3.84375 18.734375 -4.488281 19.953125 -5.78125 C 21.171875 -7.070312 21.90625 -8.773438 22.15625 -10.890625 L 15.484375 -10.890625 L 15.484375 -14.515625 L 27.015625 -14.515625 L 27.015625 0 L 22.578125 0 L 22.203125 -3.46875 C 21.347656 -2.207031 20.28125 -1.238281 19 -0.5625 C 17.71875 0.113281 16.082031 0.453125 14.09375 0.453125 Z M 14.09375 0.453125 "/></g></g></g><g fill="#000000" fill-opacity="1"><g transform="translate(123.020118, 198.358854)"><g><path d="M 9.390625 0 L 9.390625 -9.390625 L 0.53125 -26.375 L 6 -26.375 L 11.828125 -14.203125 L 17.640625 -26.375 L 23.03125 -26.375 L 14.203125 -9.390625 L 14.203125 0 Z M 9.390625 0 "/></g></g></g><g fill="#000000" fill-opacity="1"><g transform="translate(152.40245, 198.358854)"><g><path d="M 2.5625 0 L 2.5625 -26.375 L 8.296875 -26.375 L 16.703125 -9.640625 L 24.984375 -26.375 L 30.71875 -26.375 L 30.71875 0 L 25.890625 0 L 25.890625 -18.203125 L 18.546875 -3.765625 L 14.734375 -3.765625 L 7.390625 -18.203125 L 7.390625 0 Z M 2.5625 0 "/></g></g></g><g fill="#000000" fill-opacity="1"><g transform="translate(191.502099, 198.358854)"><g><path d="M 2.5625 0 L 2.5625 -26.375 L 19.59375 -26.375 L 19.59375 -22.5 L 7.390625 -22.5 L 7.390625 -15.109375 L 17.265625 -15.109375 L 17.265625 -11.3125 L 7.390625 -11.3125 L 7.390625 0 Z M 2.5625 0 "/></g></g></g><g fill="#000000" fill-opacity="1"><g transform="translate(218.097284, 198.358854)"><g><path d="M 14.921875 0.453125 C 12.285156 0.453125 9.976562 -0.125 8 -1.28125 C 6.03125 -2.4375 4.488281 -4.035156 3.375 -6.078125 C 2.257812 -8.128906 1.703125 -10.5 1.703125 -13.1875 C 1.703125 -15.875 2.257812 -18.238281 3.375 -20.28125 C 4.488281 -22.332031 6.03125 -23.9375 8 -25.09375 C 9.976562 -26.25 12.285156 -26.828125 14.921875 -26.828125 C 17.535156 -26.828125 19.832031 -26.25 21.8125 -25.09375 C 23.800781 -23.9375 25.347656 -22.332031 26.453125 -20.28125 C 27.554688 -18.238281 28.109375 -15.875 28.109375 -13.1875 C 28.109375 -10.5 27.554688 -8.128906 26.453125 -6.078125 C 25.347656 -4.035156 23.800781 -2.4375 21.8125 -1.28125 C 19.832031 -0.125 17.535156 0.453125 14.921875 0.453125 Z M 14.921875 -3.875 C 17.429688 -3.875 19.429688 -4.703125 20.921875 -6.359375 C 22.421875 -8.023438 23.171875 -10.300781 23.171875 -13.1875 C 23.171875 -16.082031 22.421875 -18.359375 20.921875 -20.015625 C 19.429688 -21.671875 17.429688 -22.5 14.921875 -22.5 C 12.410156 -22.5 10.398438 -21.671875 8.890625 -20.015625 C 7.390625 -18.359375 6.640625 -16.082031 6.640625 -13.1875 C 6.640625 -10.300781 7.390625 -8.023438 8.890625 -6.359375 C 10.398438 -4.703125 12.410156 -3.875 14.921875 -3.875 Z M 14.921875 -3.875 "/></g></g></g><g fill="#000000" fill-opacity="1"><g transform="translate(253.731853, 198.358854)"><g><path d="M 2.5625 0 L 2.5625 -26.375 L 12.25 -26.375 C 14.363281 -26.375 16.101562 -26.015625 17.46875 -25.296875 C 18.832031 -24.585938 19.851562 -23.625 20.53125 -22.40625 C 21.21875 -21.1875 21.5625 -19.835938 21.5625 -18.359375 C 21.5625 -16.742188 21.140625 -15.269531 20.296875 -13.9375 C 19.453125 -12.613281 18.140625 -11.648438 16.359375 -11.046875 L 21.828125 0 L 16.28125 0 L 11.375 -10.40625 L 7.390625 -10.40625 L 7.390625 0 Z M 7.390625 -13.9375 L 11.953125 -13.9375 C 13.554688 -13.9375 14.734375 -14.328125 15.484375 -15.109375 C 16.242188 -15.890625 16.625 -16.921875 16.625 -18.203125 C 16.625 -19.460938 16.25 -20.46875 15.5 -21.21875 C 14.757812 -21.96875 13.5625 -22.34375 11.90625 -22.34375 L 7.390625 -22.34375 Z M 7.390625 -13.9375 "/></g></g></g><g fill="#000000" fill-opacity="1"><g transform="translate(283.038836, 198.358854)"><g><path d="M 14.515625 0.453125 C 11.847656 0.453125 9.554688 -0.117188 7.640625 -1.265625 C 5.734375 -2.410156 4.265625 -4.003906 3.234375 -6.046875 C 2.210938 -8.097656 1.703125 -10.46875 1.703125 -13.15625 C 1.703125 -15.84375 2.210938 -18.210938 3.234375 -20.265625 C 4.265625 -22.328125 5.734375 -23.9375 7.640625 -25.09375 C 9.554688 -26.25 11.847656 -26.828125 14.515625 -26.828125 C 17.679688 -26.828125 20.273438 -26.039062 22.296875 -24.46875 C 24.316406 -22.90625 25.578125 -20.703125 26.078125 -17.859375 L 20.765625 -17.859375 C 20.441406 -19.296875 19.742188 -20.421875 18.671875 -21.234375 C 17.609375 -22.054688 16.195312 -22.46875 14.4375 -22.46875 C 12 -22.46875 10.085938 -21.632812 8.703125 -19.96875 C 7.328125 -18.3125 6.640625 -16.039062 6.640625 -13.15625 C 6.640625 -10.257812 7.328125 -7.988281 8.703125 -6.34375 C 10.085938 -4.695312 12 -3.875 14.4375 -3.875 C 16.195312 -3.875 17.609375 -4.257812 18.671875 -5.03125 C 19.742188 -5.800781 20.441406 -6.863281 20.765625 -8.21875 L 26.078125 -8.21875 C 25.578125 -5.5 24.316406 -3.375 22.296875 -1.84375 C 20.273438 -0.3125 17.679688 0.453125 14.515625 0.453125 Z M 14.515625 0.453125 "/></g></g></g><g fill="#000000" fill-opacity="1"><g transform="translate(316.639525, 198.358854)"><g><path d="M 2.5625 0 L 2.5625 -26.375 L 19.78125 -26.375 L 19.78125 -22.5 L 7.390625 -22.5 L 7.390625 -15.265625 L 18.65625 -15.265625 L 18.65625 -11.5 L 7.390625 -11.5 L 7.390625 -3.875 L 19.78125 -3.875 L 19.78125 0 Z M 2.5625 0 "/></g></g></g><g clip-path="url(#8cf8840e50)"><path fill="#000000" d="M 46.183594 200.332031 L 46.675781 200.816406 L 46.722656 200.867188 C 48.257812 202.453125 48.242188 205.011719 46.675781 206.578125 C 45.109375 208.140625 42.554688 208.160156 40.96875 206.625 L 40.917969 206.578125 L 40.425781 206.089844 L 39.085938 204.742188 C 37.503906 203.160156 37.503906 200.570312 39.085938 198.984375 C 40.664062 197.402344 43.261719 197.402344 44.839844 198.984375 Z M 73.339844 178.046875 L 73.816406 177.574219 L 74.363281 177.023438 L 79.382812 172.003906 C 80.964844 170.421875 80.964844 167.832031 79.382812 166.246094 C 77.796875 164.664062 75.207031 164.664062 73.625 166.246094 L 64.703125 175.167969 C 63.121094 176.75 63.121094 179.339844 64.703125 180.929688 L 67.582031 183.808594 L 68.097656 184.316406 L 73.664062 189.882812 C 75.246094 191.46875 77.832031 191.46875 79.421875 189.882812 C 81.003906 188.300781 81.003906 185.707031 79.421875 184.125 L 73.855469 178.558594 Z M 39.3125 166.285156 L 39.3125 166.277344 C 40.894531 164.695312 43.488281 164.695312 45.070312 166.277344 L 79.34375 200.566406 C 80.929688 202.148438 80.929688 204.742188 79.34375 206.324219 C 77.761719 207.90625 75.171875 207.90625 73.585938 206.324219 L 39.3125 172.039062 C 37.730469 170.457031 37.730469 167.867188 39.3125 166.285156 Z M 39.265625 182.695312 C 40.847656 181.113281 43.433594 181.113281 45.023438 182.695312 L 48.925781 186.601562 L 62.9375 200.613281 C 64.515625 202.195312 64.515625 204.792969 62.9375 206.375 C 61.347656 207.957031 58.761719 207.957031 57.179688 206.375 L 51.613281 200.804688 L 39.265625 188.457031 C 37.683594 186.875 37.683594 184.277344 39.265625 182.695312 Z M 39.265625 182.695312 " fill-opacity="1" fill-rule="evenodd"/></g></svg>