<svg xmlns="http://www.w3.org/2000/svg" xmlns:xlink="http://www.w3.org/1999/xlink" width="500" zoomAndPan="magnify" viewBox="0 0 375 374.999991" height="500" preserveAspectRatio="xMidYMid meet" version="1.0"><defs><g/></defs><path fill="#ffffff" d="M 151.113281 197.109375 L 152.488281 198.46875 L 152.628906 198.605469 C 156.90625 203.042969 156.863281 210.183594 152.488281 214.558594 C 148.117188 218.929688 140.980469 218.976562 136.546875 214.695312 L 136.40625 214.558594 L 135.03125 213.195312 L 131.285156 209.433594 C 126.871094 205.015625 126.871094 197.78125 131.285156 193.347656 C 135.703125 188.925781 142.949219 188.925781 147.367188 193.347656 Z M 226.964844 134.867188 L 229.824219 132.007812 L 243.84375 117.984375 C 248.261719 113.5625 248.261719 106.332031 243.84375 101.894531 C 239.410156 97.476562 232.179688 97.476562 227.761719 101.894531 L 213.742188 115.917969 L 212.214844 117.449219 L 210.886719 118.777344 L 202.84375 126.824219 C 198.425781 131.242188 198.425781 138.476562 202.84375 142.910156 L 210.886719 150.953125 L 212.320312 152.378906 L 227.867188 167.929688 C 232.285156 172.347656 239.515625 172.347656 243.949219 167.929688 C 248.367188 163.511719 248.367188 156.261719 243.949219 151.839844 L 228.402344 136.289062 Z M 131.929688 102.003906 L 131.929688 101.988281 C 136.347656 97.566406 143.59375 97.566406 148.011719 101.988281 L 243.734375 197.765625 C 248.167969 202.183594 248.167969 209.433594 243.734375 213.851562 C 239.316406 218.273438 232.085938 218.273438 227.65625 213.851562 L 131.929688 118.074219 C 127.511719 113.65625 127.511719 106.421875 131.929688 102.003906 Z M 131.792969 147.851562 C 136.210938 143.429688 143.441406 143.429688 147.875 147.851562 L 158.773438 158.753906 L 182.359375 182.351562 L 197.90625 197.902344 C 202.324219 202.324219 202.324219 209.570312 197.90625 213.992188 C 193.472656 218.410156 186.242188 218.410156 181.824219 213.992188 L 166.277344 198.4375 L 142.691406 174.84375 L 131.792969 163.9375 C 127.375 159.519531 127.375 152.269531 131.792969 147.851562 Z M 131.792969 147.851562 " fill-opacity="1" fill-rule="evenodd"/><g fill="#ffffff" fill-opacity="1"><g transform="translate(40.966226, 263.649893)"><g><path d="M 16.5 0.53125 C 13.582031 0.53125 11.035156 -0.128906 8.859375 -1.453125 C 6.691406 -2.773438 5.003906 -4.617188 3.796875 -6.984375 C 2.585938 -9.359375 1.984375 -12.117188 1.984375 -15.265625 C 1.984375 -18.441406 2.609375 -21.238281 3.859375 -23.65625 C 5.109375 -26.082031 6.882812 -27.976562 9.1875 -29.34375 C 11.5 -30.71875 14.242188 -31.40625 17.421875 -31.40625 C 21.035156 -31.40625 24.035156 -30.535156 26.421875 -28.796875 C 28.804688 -27.066406 30.347656 -24.671875 31.046875 -21.609375 L 24.75 -21.609375 C 24.28125 -23.054688 23.425781 -24.179688 22.1875 -24.984375 C 20.945312 -25.796875 19.359375 -26.203125 17.421875 -26.203125 C 14.335938 -26.203125 11.957031 -25.222656 10.28125 -23.265625 C 8.601562 -21.304688 7.765625 -18.625 7.765625 -15.21875 C 7.765625 -11.800781 8.59375 -9.160156 10.25 -7.296875 C 11.914062 -5.429688 14.175781 -4.5 17.03125 -4.5 C 19.820312 -4.5 21.929688 -5.253906 23.359375 -6.765625 C 24.785156 -8.285156 25.644531 -10.28125 25.9375 -12.75 L 18.125 -12.75 L 18.125 -16.984375 L 31.625 -16.984375 L 31.625 0 L 26.421875 0 L 25.984375 -4.0625 C 24.984375 -2.59375 23.734375 -1.457031 22.234375 -0.65625 C 20.734375 0.132812 18.820312 0.53125 16.5 0.53125 Z M 16.5 0.53125 "/></g></g></g><g fill="#ffffff" fill-opacity="1"><g transform="translate(81.888952, 263.649893)"><g><path d="M 10.984375 0 L 10.984375 -10.984375 L 0.625 -30.875 L 7.015625 -30.875 L 13.84375 -16.625 L 20.640625 -30.875 L 26.953125 -30.875 L 16.625 -10.984375 L 16.625 0 Z M 10.984375 0 "/></g></g></g><g fill="#ffffff" fill-opacity="1"><g transform="translate(116.285881, 263.649893)"><g><path d="M 3 0 L 3 -30.875 L 9.703125 -30.875 L 19.546875 -11.296875 L 29.25 -30.875 L 35.953125 -30.875 L 35.953125 0 L 30.296875 0 L 30.296875 -21.3125 L 21.703125 -4.40625 L 17.25 -4.40625 L 8.640625 -21.3125 L 8.640625 0 Z M 3 0 "/></g></g></g><g fill="#ffffff" fill-opacity="1"><g transform="translate(162.058852, 263.649893)"><g><path d="M 3 0 L 3 -30.875 L 22.9375 -30.875 L 22.9375 -26.328125 L 8.640625 -26.328125 L 8.640625 -17.6875 L 20.203125 -17.6875 L 20.203125 -13.234375 L 8.640625 -13.234375 L 8.640625 0 Z M 3 0 "/></g></g></g><g fill="#ffffff" fill-opacity="1"><g transform="translate(193.192906, 263.649893)"><g><path d="M 17.46875 0.53125 C 14.375 0.53125 11.671875 -0.144531 9.359375 -1.5 C 7.054688 -2.851562 5.25 -4.726562 3.9375 -7.125 C 2.632812 -9.519531 1.984375 -12.289062 1.984375 -15.4375 C 1.984375 -18.582031 2.632812 -21.351562 3.9375 -23.75 C 5.25 -26.144531 7.054688 -28.019531 9.359375 -29.375 C 11.671875 -30.726562 14.375 -31.40625 17.46875 -31.40625 C 20.519531 -31.40625 23.207031 -30.726562 25.53125 -29.375 C 27.863281 -28.019531 29.675781 -26.144531 30.96875 -23.75 C 32.257812 -21.351562 32.90625 -18.582031 32.90625 -15.4375 C 32.90625 -12.289062 32.257812 -9.519531 30.96875 -7.125 C 29.675781 -4.726562 27.863281 -2.851562 25.53125 -1.5 C 23.207031 -0.144531 20.519531 0.53125 17.46875 0.53125 Z M 17.46875 -4.546875 C 20.40625 -4.546875 22.75 -5.515625 24.5 -7.453125 C 26.25 -9.390625 27.125 -12.050781 27.125 -15.4375 C 27.125 -18.820312 26.25 -21.484375 24.5 -23.421875 C 22.75 -25.359375 20.40625 -26.328125 17.46875 -26.328125 C 14.53125 -26.328125 12.175781 -25.359375 10.40625 -23.421875 C 8.644531 -21.484375 7.765625 -18.820312 7.765625 -15.4375 C 7.765625 -12.050781 8.644531 -9.390625 10.40625 -7.453125 C 12.175781 -5.515625 14.53125 -4.546875 17.46875 -4.546875 Z M 17.46875 -4.546875 "/></g></g></g><g fill="#ffffff" fill-opacity="1"><g transform="translate(234.909316, 263.649893)"><g><path d="M 3 0 L 3 -30.875 L 14.328125 -30.875 C 16.804688 -30.875 18.84375 -30.453125 20.4375 -29.609375 C 22.039062 -28.773438 23.238281 -27.644531 24.03125 -26.21875 C 24.832031 -24.789062 25.234375 -23.210938 25.234375 -21.484375 C 25.234375 -19.597656 24.738281 -17.875 23.75 -16.3125 C 22.769531 -14.757812 21.234375 -13.628906 19.140625 -12.921875 L 25.546875 0 L 19.0625 0 L 13.328125 -12.171875 L 8.640625 -12.171875 L 8.640625 0 Z M 8.640625 -16.328125 L 13.984375 -16.328125 C 15.867188 -16.328125 17.25 -16.78125 18.125 -17.6875 C 19.007812 -18.601562 19.453125 -19.8125 19.453125 -21.3125 C 19.453125 -22.78125 19.015625 -23.953125 18.140625 -24.828125 C 17.273438 -25.710938 15.875 -26.15625 13.9375 -26.15625 L 8.640625 -26.15625 Z M 8.640625 -16.328125 "/></g></g></g><g fill="#ffffff" fill-opacity="1"><g transform="translate(269.218077, 263.649893)"><g><path d="M 16.984375 0.53125 C 13.867188 0.53125 11.191406 -0.132812 8.953125 -1.46875 C 6.722656 -2.8125 5.003906 -4.679688 3.796875 -7.078125 C 2.585938 -9.472656 1.984375 -12.242188 1.984375 -15.390625 C 1.984375 -18.535156 2.585938 -21.3125 3.796875 -23.71875 C 5.003906 -26.132812 6.722656 -28.019531 8.953125 -29.375 C 11.191406 -30.726562 13.867188 -31.40625 16.984375 -31.40625 C 20.691406 -31.40625 23.726562 -30.484375 26.09375 -28.640625 C 28.457031 -26.804688 29.9375 -24.226562 30.53125 -20.90625 L 24.296875 -20.90625 C 23.921875 -22.582031 23.109375 -23.898438 21.859375 -24.859375 C 20.609375 -25.816406 18.953125 -26.296875 16.890625 -26.296875 C 14.035156 -26.296875 11.800781 -25.320312 10.1875 -23.375 C 8.570312 -21.4375 7.765625 -18.773438 7.765625 -15.390625 C 7.765625 -12.015625 8.570312 -9.363281 10.1875 -7.4375 C 11.800781 -5.507812 14.035156 -4.546875 16.890625 -4.546875 C 18.953125 -4.546875 20.609375 -4.992188 21.859375 -5.890625 C 23.109375 -6.785156 23.921875 -8.023438 24.296875 -9.609375 L 30.53125 -9.609375 C 29.9375 -6.441406 28.457031 -3.957031 26.09375 -2.15625 C 23.726562 -0.363281 20.691406 0.53125 16.984375 0.53125 Z M 16.984375 0.53125 "/></g></g></g><g fill="#ffffff" fill-opacity="1"><g transform="translate(308.553466, 263.649893)"><g><path d="M 3 0 L 3 -30.875 L 23.15625 -30.875 L 23.15625 -26.328125 L 8.640625 -26.328125 L 8.640625 -17.859375 L 21.828125 -17.859375 L 21.828125 -13.453125 L 8.640625 -13.453125 L 8.640625 -4.546875 L 23.15625 -4.546875 L 23.15625 0 Z M 3 0 "/></g></g></g></svg>