<svg xmlns="http://www.w3.org/2000/svg" xmlns:xlink="http://www.w3.org/1999/xlink" width="500" zoomAndPan="magnify" viewBox="0 0 375 374.999991" height="500" preserveAspectRatio="xMidYMid meet" version="1.0"><path fill="#ffffff" d="M 74.828125 307.484375 L 79.074219 311.6875 L 79.5 312.109375 C 92.710938 325.796875 92.566406 347.839844 79.074219 361.339844 C 65.582031 374.839844 43.546875 374.980469 29.863281 361.765625 L 29.441406 361.339844 L 25.195312 357.140625 L 13.636719 345.527344 C 0 331.886719 0 309.5625 13.636719 295.875 C 27.269531 282.234375 49.632812 282.234375 63.269531 295.875 Z M 308.9375 115.382812 L 313.042969 111.277344 L 317.757812 106.558594 L 361.023438 63.273438 C 374.660156 49.632812 374.660156 27.308594 361.023438 13.621094 C 347.339844 -0.0195312 325.023438 -0.0195312 311.390625 13.621094 L 268.125 56.902344 L 263.40625 61.621094 L 259.304688 65.730469 L 234.484375 90.554688 C 220.851562 104.195312 220.851562 126.523438 234.484375 140.210938 L 259.304688 165.035156 L 263.738281 169.425781 L 311.71875 217.429688 C 325.355469 231.070312 347.671875 231.070312 361.355469 217.429688 C 374.988281 203.789062 374.988281 181.414062 361.355469 167.773438 L 313.371094 119.773438 Z M 15.617188 13.953125 L 15.617188 13.90625 C 29.25 0.261719 51.617188 0.261719 65.25 13.90625 L 360.695312 309.515625 C 374.375 323.15625 374.375 345.527344 360.695312 359.167969 C 347.058594 372.808594 324.742188 372.808594 311.058594 359.167969 L 15.617188 63.558594 C 1.980469 49.917969 1.980469 27.59375 15.617188 13.953125 Z M 15.191406 155.457031 C 28.828125 141.816406 51.144531 141.816406 64.824219 155.457031 L 98.464844 189.109375 L 171.265625 261.9375 L 219.246094 309.941406 C 232.882812 323.582031 232.882812 345.953125 219.246094 359.59375 C 205.566406 373.234375 183.25 373.234375 169.613281 359.59375 L 121.632812 311.589844 L 48.832031 238.761719 L 15.191406 205.109375 C 1.558594 191.46875 1.558594 169.097656 15.191406 155.457031 Z M 15.191406 155.457031 " fill-opacity="1" fill-rule="evenodd"/></svg>