<svg xmlns="http://www.w3.org/2000/svg" xmlns:xlink="http://www.w3.org/1999/xlink" width="500" zoomAndPan="magnify" viewBox="0 0 375 374.999991" height="500" preserveAspectRatio="xMidYMid meet" version="1.0"><defs><g/></defs><g fill="#000000" fill-opacity="1"><g transform="translate(40.966226, 264.476649)"><g><path d="M 16.5 0.53125 C 13.582031 0.53125 11.035156 -0.128906 8.859375 -1.453125 C 6.691406 -2.773438 5.003906 -4.617188 3.796875 -6.984375 C 2.585938 -9.359375 1.984375 -12.117188 1.984375 -15.265625 C 1.984375 -18.441406 2.609375 -21.238281 3.859375 -23.65625 C 5.109375 -26.082031 6.882812 -27.976562 9.1875 -29.34375 C 11.5 -30.71875 14.242188 -31.40625 17.421875 -31.40625 C 21.035156 -31.40625 24.035156 -30.535156 26.421875 -28.796875 C 28.804688 -27.066406 30.347656 -24.671875 31.046875 -21.609375 L 24.75 -21.609375 C 24.28125 -23.054688 23.425781 -24.179688 22.1875 -24.984375 C 20.945312 -25.796875 19.359375 -26.203125 17.421875 -26.203125 C 14.335938 -26.203125 11.957031 -25.222656 10.28125 -23.265625 C 8.601562 -21.304688 7.765625 -18.625 7.765625 -15.21875 C 7.765625 -11.800781 8.59375 -9.160156 10.25 -7.296875 C 11.914062 -5.429688 14.175781 -4.5 17.03125 -4.5 C 19.820312 -4.5 21.929688 -5.253906 23.359375 -6.765625 C 24.785156 -8.285156 25.644531 -10.28125 25.9375 -12.75 L 18.125 -12.75 L 18.125 -16.984375 L 31.625 -16.984375 L 31.625 0 L 26.421875 0 L 25.984375 -4.0625 C 24.984375 -2.59375 23.734375 -1.457031 22.234375 -0.65625 C 20.734375 0.132812 18.820312 0.53125 16.5 0.53125 Z M 16.5 0.53125 "/></g></g></g><g fill="#000000" fill-opacity="1"><g transform="translate(81.888952, 264.476649)"><g><path d="M 10.984375 0 L 10.984375 -10.984375 L 0.625 -30.875 L 7.015625 -30.875 L 13.84375 -16.625 L 20.640625 -30.875 L 26.953125 -30.875 L 16.625 -10.984375 L 16.625 0 Z M 10.984375 0 "/></g></g></g><g fill="#000000" fill-opacity="1"><g transform="translate(116.285881, 264.476649)"><g><path d="M 3 0 L 3 -30.875 L 9.703125 -30.875 L 19.546875 -11.296875 L 29.25 -30.875 L 35.953125 -30.875 L 35.953125 0 L 30.296875 0 L 30.296875 -21.3125 L 21.703125 -4.40625 L 17.25 -4.40625 L 8.640625 -21.3125 L 8.640625 0 Z M 3 0 "/></g></g></g><g fill="#000000" fill-opacity="1"><g transform="translate(162.058852, 264.476649)"><g><path d="M 3 0 L 3 -30.875 L 22.9375 -30.875 L 22.9375 -26.328125 L 8.640625 -26.328125 L 8.640625 -17.6875 L 20.203125 -17.6875 L 20.203125 -13.234375 L 8.640625 -13.234375 L 8.640625 0 Z M 3 0 "/></g></g></g><g fill="#000000" fill-opacity="1"><g transform="translate(193.192906, 264.476649)"><g><path d="M 17.46875 0.53125 C 14.375 0.53125 11.671875 -0.144531 9.359375 -1.5 C 7.054688 -2.851562 5.25 -4.726562 3.9375 -7.125 C 2.632812 -9.519531 1.984375 -12.289062 1.984375 -15.4375 C 1.984375 -18.582031 2.632812 -21.351562 3.9375 -23.75 C 5.25 -26.144531 7.054688 -28.019531 9.359375 -29.375 C 11.671875 -30.726562 14.375 -31.40625 17.46875 -31.40625 C 20.519531 -31.40625 23.207031 -30.726562 25.53125 -29.375 C 27.863281 -28.019531 29.675781 -26.144531 30.96875 -23.75 C 32.257812 -21.351562 32.90625 -18.582031 32.90625 -15.4375 C 32.90625 -12.289062 32.257812 -9.519531 30.96875 -7.125 C 29.675781 -4.726562 27.863281 -2.851562 25.53125 -1.5 C 23.207031 -0.144531 20.519531 0.53125 17.46875 0.53125 Z M 17.46875 -4.546875 C 20.40625 -4.546875 22.75 -5.515625 24.5 -7.453125 C 26.25 -9.390625 27.125 -12.050781 27.125 -15.4375 C 27.125 -18.820312 26.25 -21.484375 24.5 -23.421875 C 22.75 -25.359375 20.40625 -26.328125 17.46875 -26.328125 C 14.53125 -26.328125 12.175781 -25.359375 10.40625 -23.421875 C 8.644531 -21.484375 7.765625 -18.820312 7.765625 -15.4375 C 7.765625 -12.050781 8.644531 -9.390625 10.40625 -7.453125 C 12.175781 -5.515625 14.53125 -4.546875 17.46875 -4.546875 Z M 17.46875 -4.546875 "/></g></g></g><g fill="#000000" fill-opacity="1"><g transform="translate(234.909316, 264.476649)"><g><path d="M 3 0 L 3 -30.875 L 14.328125 -30.875 C 16.804688 -30.875 18.84375 -30.453125 20.4375 -29.609375 C 22.039062 -28.773438 23.238281 -27.644531 24.03125 -26.21875 C 24.832031 -24.789062 25.234375 -23.210938 25.234375 -21.484375 C 25.234375 -19.597656 24.738281 -17.875 23.75 -16.3125 C 22.769531 -14.757812 21.234375 -13.628906 19.140625 -12.921875 L 25.546875 0 L 19.0625 0 L 13.328125 -12.171875 L 8.640625 -12.171875 L 8.640625 0 Z M 8.640625 -16.328125 L 13.984375 -16.328125 C 15.867188 -16.328125 17.25 -16.78125 18.125 -17.6875 C 19.007812 -18.601562 19.453125 -19.8125 19.453125 -21.3125 C 19.453125 -22.78125 19.015625 -23.953125 18.140625 -24.828125 C 17.273438 -25.710938 15.875 -26.15625 13.9375 -26.15625 L 8.640625 -26.15625 Z M 8.640625 -16.328125 "/></g></g></g><g fill="#000000" fill-opacity="1"><g transform="translate(269.218077, 264.476649)"><g><path d="M 16.984375 0.53125 C 13.867188 0.53125 11.191406 -0.132812 8.953125 -1.46875 C 6.722656 -2.8125 5.003906 -4.679688 3.796875 -7.078125 C 2.585938 -9.472656 1.984375 -12.242188 1.984375 -15.390625 C 1.984375 -18.535156 2.585938 -21.3125 3.796875 -23.71875 C 5.003906 -26.132812 6.722656 -28.019531 8.953125 -29.375 C 11.191406 -30.726562 13.867188 -31.40625 16.984375 -31.40625 C 20.691406 -31.40625 23.726562 -30.484375 26.09375 -28.640625 C 28.457031 -26.804688 29.9375 -24.226562 30.53125 -20.90625 L 24.296875 -20.90625 C 23.921875 -22.582031 23.109375 -23.898438 21.859375 -24.859375 C 20.609375 -25.816406 18.953125 -26.296875 16.890625 -26.296875 C 14.035156 -26.296875 11.800781 -25.320312 10.1875 -23.375 C 8.570312 -21.4375 7.765625 -18.773438 7.765625 -15.390625 C 7.765625 -12.015625 8.570312 -9.363281 10.1875 -7.4375 C 11.800781 -5.507812 14.035156 -4.546875 16.890625 -4.546875 C 18.953125 -4.546875 20.609375 -4.992188 21.859375 -5.890625 C 23.109375 -6.785156 23.921875 -8.023438 24.296875 -9.609375 L 30.53125 -9.609375 C 29.9375 -6.441406 28.457031 -3.957031 26.09375 -2.15625 C 23.726562 -0.363281 20.691406 0.53125 16.984375 0.53125 Z M 16.984375 0.53125 "/></g></g></g><g fill="#000000" fill-opacity="1"><g transform="translate(308.553466, 264.476649)"><g><path d="M 3 0 L 3 -30.875 L 23.15625 -30.875 L 23.15625 -26.328125 L 8.640625 -26.328125 L 8.640625 -17.859375 L 21.828125 -17.859375 L 21.828125 -13.453125 L 8.640625 -13.453125 L 8.640625 -4.546875 L 23.15625 -4.546875 L 23.15625 0 Z M 3 0 "/></g></g></g><path fill="#000000" d="M 151.113281 196.28125 L 152.488281 197.640625 L 152.628906 197.78125 C 156.90625 202.214844 156.863281 209.355469 152.488281 213.730469 C 148.117188 218.105469 140.980469 218.148438 136.546875 213.867188 L 136.40625 213.730469 L 135.03125 212.367188 L 131.285156 208.605469 C 126.871094 204.1875 126.871094 196.953125 131.285156 192.519531 C 135.703125 188.097656 142.949219 188.097656 147.367188 192.519531 Z M 226.964844 134.039062 L 228.296875 132.710938 L 229.824219 131.179688 L 243.84375 117.15625 C 248.261719 112.738281 248.261719 105.503906 243.84375 101.070312 C 239.410156 96.648438 232.179688 96.648438 227.761719 101.070312 L 213.742188 115.09375 L 212.214844 116.621094 L 210.886719 117.953125 L 202.84375 125.996094 C 198.425781 130.414062 198.425781 137.648438 202.84375 142.085938 L 210.886719 150.128906 L 212.320312 151.550781 L 227.867188 167.101562 C 232.285156 171.523438 239.515625 171.523438 243.949219 167.101562 C 248.367188 162.683594 248.367188 155.433594 243.949219 151.015625 L 228.402344 135.460938 Z M 131.929688 101.175781 L 131.929688 101.160156 C 136.347656 96.742188 143.59375 96.742188 148.011719 101.160156 L 243.734375 196.9375 C 248.167969 201.359375 248.167969 208.605469 243.734375 213.027344 C 239.316406 217.445312 232.085938 217.445312 227.65625 213.027344 L 131.929688 117.25 C 127.511719 112.828125 127.511719 105.597656 131.929688 101.175781 Z M 131.792969 147.023438 C 136.210938 142.605469 143.441406 142.605469 147.875 147.023438 L 158.773438 157.925781 L 182.359375 181.523438 L 197.90625 197.078125 C 202.324219 201.496094 202.324219 208.746094 197.90625 213.164062 C 193.472656 217.582031 186.242188 217.582031 181.824219 213.164062 L 166.277344 197.613281 L 142.691406 174.015625 L 131.792969 163.113281 C 127.375 158.691406 127.375 151.441406 131.792969 147.023438 Z M 131.792969 147.023438 " fill-opacity="1" fill-rule="evenodd"/></svg>