<svg xmlns="http://www.w3.org/2000/svg" xmlns:xlink="http://www.w3.org/1999/xlink" width="324" zoomAndPan="magnify" viewBox="0 0 242.87999 37.5" height="50" preserveAspectRatio="xMidYMid meet" version="1.0"><defs><g/><clipPath id="baab015d8d"><path d="M 1.539062 0 L 241.222656 0 L 241.222656 37.007812 L 1.539062 37.007812 Z M 1.539062 0 " clip-rule="nonzero"/></clipPath><clipPath id="089edcddfd"><path d="M 3.578125 2.691406 L 35.464844 2.691406 L 35.464844 34.578125 L 3.578125 34.578125 Z M 3.578125 2.691406 " clip-rule="nonzero"/></clipPath></defs><g clip-path="url(#baab015d8d)"><path fill="#ffffff" d="M 1.539062 0 L 241.339844 0 L 241.339844 37.007812 L 1.539062 37.007812 Z M 1.539062 0 " fill-opacity="1" fill-rule="nonzero"/><path fill="#000000" d="M 1.539062 0 L 241.339844 0 L 241.339844 37.007812 L 1.539062 37.007812 Z M 1.539062 0 " fill-opacity="1" fill-rule="nonzero"/></g><g clip-path="url(#089edcddfd)"><path fill="#ffffff" d="M 9.996094 28.789062 L 10.363281 29.148438 L 10.398438 29.183594 C 11.53125 30.359375 11.519531 32.25 10.363281 33.40625 C 9.203125 34.566406 7.3125 34.578125 6.140625 33.445312 L 6.101562 33.40625 L 5.738281 33.046875 L 4.746094 32.050781 C 3.578125 30.882812 3.578125 28.96875 4.746094 27.792969 C 5.917969 26.625 7.835938 26.625 9.003906 27.792969 Z M 30.082031 12.316406 L 30.433594 11.964844 L 30.835938 11.558594 L 34.550781 7.847656 C 35.71875 6.675781 35.71875 4.761719 34.550781 3.589844 C 33.375 2.417969 31.460938 2.417969 30.292969 3.589844 L 26.578125 7.300781 L 26.175781 7.707031 L 23.695312 10.1875 C 22.523438 11.355469 22.523438 13.269531 23.695312 14.445312 L 25.824219 16.574219 L 26.203125 16.949219 L 30.320312 21.066406 C 31.488281 22.234375 33.402344 22.234375 34.578125 21.066406 C 35.746094 19.894531 35.746094 17.976562 34.578125 16.808594 L 30.460938 12.691406 Z M 4.917969 3.617188 L 4.917969 3.613281 C 6.085938 2.445312 8.003906 2.445312 9.175781 3.613281 L 34.519531 28.960938 C 35.695312 30.132812 35.695312 32.050781 34.519531 33.222656 C 33.351562 34.390625 31.4375 34.390625 30.261719 33.222656 L 4.917969 7.871094 C 3.746094 6.703125 3.746094 4.785156 4.917969 3.617188 Z M 4.882812 15.75 C 6.050781 14.582031 7.964844 14.582031 9.140625 15.75 L 12.023438 18.636719 L 22.386719 29 C 23.554688 30.167969 23.554688 32.085938 22.386719 33.257812 C 21.210938 34.425781 19.296875 34.425781 18.128906 33.257812 L 4.882812 20.011719 C 3.710938 18.839844 3.710938 16.921875 4.882812 15.75 Z M 4.882812 15.75 " fill-opacity="1" fill-rule="evenodd"/></g><g fill="#ffffff" fill-opacity="1"><g transform="translate(35.757494, 27.294389)"><g><path d="M 1.109375 -10.90625 C 1.109375 -4.03125 6.359375 0.421875 12.734375 0.421875 C 16.703125 0.421875 19.8125 -1.21875 22.046875 -3.703125 L 22.046875 -12.046875 L 11.625 -12.046875 L 11.625 -8.0625 L 17.453125 -8.0625 L 17.453125 -5.40625 C 16.5 -4.546875 14.734375 -3.734375 12.734375 -3.734375 C 8.78125 -3.734375 5.890625 -6.78125 5.890625 -10.90625 C 5.890625 -15.03125 8.78125 -18.078125 12.734375 -18.078125 C 15.03125 -18.078125 16.90625 -16.859375 17.921875 -15.328125 L 21.78125 -17.421875 C 20.109375 -20.015625 17.265625 -22.203125 12.734375 -22.203125 C 6.359375 -22.203125 1.109375 -17.8125 1.109375 -10.90625 Z M 1.109375 -10.90625 "/></g></g></g><g fill="#ffffff" fill-opacity="1"><g transform="translate(62.60509, 27.294389)"><g><path d="M 12.90625 0 L 12.90625 -8.9375 L 21.25 -21.84375 L 15.953125 -21.84375 L 10.578125 -13.0625 L 5.140625 -21.84375 L -0.15625 -21.84375 L 8.25 -8.9375 L 8.25 0 Z M 12.90625 0 "/></g></g></g><g fill="#ffffff" fill-opacity="1"><g transform="translate(86.997256, 27.294389)"><g><path d="M 25.84375 0 L 25.84375 -21.84375 L 19.296875 -21.84375 L 13.984375 -8.21875 L 8.671875 -21.84375 L 2.15625 -21.84375 L 2.15625 0 L 6.8125 0 L 6.8125 -15.71875 L 12.96875 0 L 15 0 L 21.15625 -15.71875 L 21.15625 0 Z M 25.84375 0 "/></g></g></g><g fill="#ffffff" fill-opacity="1"><g transform="translate(118.264607, 27.294389)"><g><path d="M 6.8125 0 L 6.8125 -9.109375 L 17.390625 -9.109375 L 17.390625 -13.09375 L 6.8125 -13.09375 L 6.8125 -17.84375 L 17.625 -17.84375 L 17.625 -21.84375 L 2.15625 -21.84375 L 2.15625 0 Z M 6.8125 0 "/></g></g></g><g fill="#ffffff" fill-opacity="1"><g transform="translate(140.23409, 27.294389)"><g><path d="M 1.109375 -10.90625 C 1.109375 -4.328125 5.921875 0.390625 12.515625 0.390625 C 19.125 0.390625 23.9375 -4.328125 23.9375 -10.90625 C 23.9375 -17.484375 19.125 -22.203125 12.515625 -22.203125 C 5.921875 -22.203125 1.109375 -17.484375 1.109375 -10.90625 Z M 19.15625 -10.90625 C 19.15625 -6.84375 16.53125 -3.734375 12.515625 -3.734375 C 8.484375 -3.734375 5.890625 -6.84375 5.890625 -10.90625 C 5.890625 -15 8.484375 -18.078125 12.515625 -18.078125 C 16.53125 -18.078125 19.15625 -15 19.15625 -10.90625 Z M 19.15625 -10.90625 "/></g></g></g><g fill="#ffffff" fill-opacity="1"><g transform="translate(168.554936, 27.294389)"><g><path d="M 19.84375 0 L 14.9375 -8.3125 C 17.296875 -8.875 19.71875 -10.9375 19.71875 -14.796875 C 19.71875 -18.859375 16.9375 -21.84375 12.375 -21.84375 L 2.15625 -21.84375 L 2.15625 0 L 6.8125 0 L 6.8125 -7.828125 L 10.21875 -7.828125 L 14.515625 0 Z M 14.96875 -14.828125 C 14.96875 -13 13.5625 -11.828125 11.6875 -11.828125 L 6.8125 -11.828125 L 6.8125 -17.84375 L 11.6875 -17.84375 C 13.5625 -17.84375 14.96875 -16.671875 14.96875 -14.828125 Z M 14.96875 -14.828125 "/></g></g></g><g fill="#ffffff" fill-opacity="1"><g transform="translate(192.881636, 27.294389)"><g><path d="M 12.578125 0.390625 C 17.546875 0.390625 20.3125 -2.265625 21.875 -4.984375 L 17.875 -6.90625 C 16.96875 -5.109375 15 -3.734375 12.578125 -3.734375 C 8.78125 -3.734375 5.890625 -6.78125 5.890625 -10.90625 C 5.890625 -15.03125 8.78125 -18.078125 12.578125 -18.078125 C 15 -18.078125 16.96875 -16.671875 17.875 -14.90625 L 21.875 -16.859375 C 20.34375 -19.578125 17.546875 -22.203125 12.578125 -22.203125 C 6.1875 -22.203125 1.109375 -17.625 1.109375 -10.90625 C 1.109375 -4.1875 6.1875 0.390625 12.578125 0.390625 Z M 12.578125 0.390625 "/></g></g></g><g fill="#ffffff" fill-opacity="1"><g transform="translate(218.64883, 27.294389)"><g><path d="M 17.625 0 L 17.625 -4.03125 L 6.8125 -4.03125 L 6.8125 -9.109375 L 17.390625 -9.109375 L 17.390625 -13.09375 L 6.8125 -13.09375 L 6.8125 -17.84375 L 17.625 -17.84375 L 17.625 -21.84375 L 2.15625 -21.84375 L 2.15625 0 Z M 17.625 0 "/></g></g></g></svg>