<svg xmlns="http://www.w3.org/2000/svg" xmlns:xlink="http://www.w3.org/1999/xlink" width="192" zoomAndPan="magnify" viewBox="0 0 144 143.999998" height="192" preserveAspectRatio="xMidYMid meet" version="1.0"><path fill="#000000" d="M 28.734375 118.042969 L 30.363281 119.652344 L 30.527344 119.816406 C 35.601562 125.070312 35.546875 133.53125 30.363281 138.714844 C 25.183594 143.894531 16.722656 143.949219 11.46875 138.875 L 11.304688 138.714844 L 9.675781 137.101562 L 5.234375 132.644531 C 0 127.40625 0 118.839844 5.234375 113.585938 C 10.472656 108.347656 19.058594 108.347656 24.296875 113.585938 Z M 118.632812 44.304688 L 120.207031 42.726562 L 122.019531 40.917969 L 138.632812 24.304688 C 143.867188 19.066406 143.867188 10.496094 138.632812 5.242188 C 133.378906 0.0078125 124.808594 0.0078125 119.574219 5.242188 L 101.148438 23.667969 L 99.574219 25.246094 L 90.042969 34.773438 C 84.808594 40.011719 84.808594 48.578125 90.042969 53.832031 L 99.574219 63.363281 L 101.273438 65.046875 L 119.699219 83.472656 C 124.9375 88.710938 133.507812 88.710938 138.761719 83.472656 C 143.996094 78.238281 143.996094 69.648438 138.761719 64.414062 L 120.335938 45.988281 Z M 5.996094 5.371094 L 5.996094 5.351562 C 11.234375 0.117188 19.820312 0.117188 25.054688 5.351562 L 138.507812 118.820312 C 143.761719 124.054688 143.761719 132.644531 138.507812 137.878906 C 133.269531 143.117188 124.699219 143.117188 119.445312 137.878906 L 5.996094 24.410156 C 0.761719 19.175781 0.761719 10.605469 5.996094 5.371094 Z M 5.832031 59.6875 C 11.070312 54.449219 19.640625 54.449219 24.894531 59.6875 L 37.8125 72.601562 L 65.765625 100.558594 L 84.191406 118.984375 C 89.425781 124.21875 89.425781 132.808594 84.191406 138.042969 C 78.9375 143.277344 70.367188 143.277344 65.132812 138.042969 L 46.707031 119.617188 L 18.75 91.664062 L 5.832031 78.746094 C 0.597656 73.507812 0.597656 64.921875 5.832031 59.6875 Z M 5.832031 59.6875 " fill-opacity="1" fill-rule="evenodd"/></svg>