<svg xmlns="http://www.w3.org/2000/svg" xmlns:xlink="http://www.w3.org/1999/xlink" width="400" zoomAndPan="magnify" viewBox="0 0 300 52.499999" height="70" preserveAspectRatio="xMidYMid meet" version="1.0"><defs><g/><clipPath id="af25aefba3"><path d="M 1.414062 0 L 298.582031 0 L 298.582031 52.003906 L 1.414062 52.003906 Z M 1.414062 0 " clip-rule="nonzero"/></clipPath></defs><g clip-path="url(#af25aefba3)"><path fill="#ffffff" d="M 1.414062 0 L 298.585938 0 L 298.585938 52.003906 L 1.414062 52.003906 Z M 1.414062 0 " fill-opacity="1" fill-rule="nonzero"/><path fill="#ffffff" d="M 1.414062 0 L 298.585938 0 L 298.585938 52.003906 L 1.414062 52.003906 Z M 1.414062 0 " fill-opacity="1" fill-rule="nonzero"/></g><g fill="#ffffff" fill-opacity="1"><g transform="translate(4.825414, 38.703202)"><g><path d="M 16.34375 0.53125 C 13.457031 0.53125 10.9375 -0.125 8.78125 -1.4375 C 6.625 -2.75 4.945312 -4.578125 3.75 -6.921875 C 2.5625 -9.265625 1.96875 -12 1.96875 -15.125 C 1.96875 -18.269531 2.585938 -21.039062 3.828125 -23.4375 C 5.066406 -25.84375 6.828125 -27.722656 9.109375 -29.078125 C 11.398438 -30.429688 14.117188 -31.109375 17.265625 -31.109375 C 20.847656 -31.109375 23.816406 -30.25 26.171875 -28.53125 C 28.535156 -26.8125 30.066406 -24.441406 30.765625 -21.421875 L 24.515625 -21.421875 C 24.046875 -22.847656 23.195312 -23.957031 21.96875 -24.75 C 20.75 -25.550781 19.179688 -25.953125 17.265625 -25.953125 C 14.203125 -25.953125 11.835938 -24.984375 10.171875 -23.046875 C 8.515625 -21.109375 7.6875 -18.453125 7.6875 -15.078125 C 7.6875 -11.703125 8.507812 -9.085938 10.15625 -7.234375 C 11.800781 -5.378906 14.039062 -4.453125 16.875 -4.453125 C 19.632812 -4.453125 21.722656 -5.203125 23.140625 -6.703125 C 24.554688 -8.203125 25.410156 -10.175781 25.703125 -12.625 L 17.96875 -12.625 L 17.96875 -16.828125 L 31.328125 -16.828125 L 31.328125 0 L 26.171875 0 L 25.734375 -4.015625 C 24.742188 -2.554688 23.503906 -1.429688 22.015625 -0.640625 C 20.535156 0.140625 18.644531 0.53125 16.34375 0.53125 Z M 16.34375 0.53125 "/></g></g></g><g fill="#ffffff" fill-opacity="1"><g transform="translate(45.362077, 38.703202)"><g><path d="M 10.875 0 L 10.875 -10.875 L 0.609375 -30.59375 L 6.953125 -30.59375 L 13.71875 -16.46875 L 20.453125 -30.59375 L 26.703125 -30.59375 L 16.46875 -10.875 L 16.46875 0 Z M 10.875 0 "/></g></g></g><g fill="#ffffff" fill-opacity="1"><g transform="translate(79.434506, 38.703202)"><g><path d="M 2.96875 0 L 2.96875 -30.59375 L 9.609375 -30.59375 L 19.359375 -11.1875 L 28.96875 -30.59375 L 35.625 -30.59375 L 35.625 0 L 30.03125 0 L 30.03125 -21.109375 L 21.5 -4.375 L 17.09375 -4.375 L 8.5625 -21.109375 L 8.5625 0 Z M 2.96875 0 "/></g></g></g><g fill="#ffffff" fill-opacity="1"><g transform="translate(124.775657, 38.703202)"><g><path d="M 2.96875 0 L 2.96875 -30.59375 L 22.71875 -30.59375 L 22.71875 -26.09375 L 8.5625 -26.09375 L 8.5625 -17.53125 L 20.015625 -17.53125 L 20.015625 -13.109375 L 8.5625 -13.109375 L 8.5625 0 Z M 2.96875 0 "/></g></g></g><g fill="#ffffff" fill-opacity="1"><g transform="translate(155.615993, 38.703202)"><g><path d="M 17.3125 0.53125 C 14.25 0.53125 11.570312 -0.140625 9.28125 -1.484375 C 7 -2.828125 5.207031 -4.6875 3.90625 -7.0625 C 2.613281 -9.4375 1.96875 -12.179688 1.96875 -15.296875 C 1.96875 -18.410156 2.613281 -21.15625 3.90625 -23.53125 C 5.207031 -25.90625 7 -27.757812 9.28125 -29.09375 C 11.570312 -30.4375 14.25 -31.109375 17.3125 -31.109375 C 20.332031 -31.109375 22.992188 -30.4375 25.296875 -29.09375 C 27.597656 -27.757812 29.390625 -25.90625 30.671875 -23.53125 C 31.960938 -21.15625 32.609375 -18.410156 32.609375 -15.296875 C 32.609375 -12.179688 31.960938 -9.4375 30.671875 -7.0625 C 29.390625 -4.6875 27.597656 -2.828125 25.296875 -1.484375 C 22.992188 -0.140625 20.332031 0.53125 17.3125 0.53125 Z M 17.3125 -4.5 C 20.21875 -4.5 22.535156 -5.457031 24.265625 -7.375 C 26.003906 -9.300781 26.875 -11.941406 26.875 -15.296875 C 26.875 -18.648438 26.003906 -21.285156 24.265625 -23.203125 C 22.535156 -25.128906 20.21875 -26.09375 17.3125 -26.09375 C 14.394531 -26.09375 12.0625 -25.128906 10.3125 -23.203125 C 8.5625 -21.285156 7.6875 -18.648438 7.6875 -15.296875 C 7.6875 -11.941406 8.5625 -9.300781 10.3125 -7.375 C 12.0625 -5.457031 14.394531 -4.5 17.3125 -4.5 Z M 17.3125 -4.5 "/></g></g></g><g fill="#ffffff" fill-opacity="1"><g transform="translate(196.938852, 38.703202)"><g><path d="M 2.96875 0 L 2.96875 -30.59375 L 14.203125 -30.59375 C 16.648438 -30.59375 18.664062 -30.175781 20.25 -29.34375 C 21.84375 -28.507812 23.03125 -27.382812 23.8125 -25.96875 C 24.601562 -24.5625 25 -23 25 -21.28125 C 25 -19.414062 24.507812 -17.710938 23.53125 -16.171875 C 22.550781 -14.628906 21.03125 -13.507812 18.96875 -12.8125 L 25.296875 0 L 18.875 0 L 13.203125 -12.0625 L 8.5625 -12.0625 L 8.5625 0 Z M 8.5625 -16.171875 L 13.859375 -16.171875 C 15.722656 -16.171875 17.085938 -16.617188 17.953125 -17.515625 C 18.828125 -18.421875 19.265625 -19.617188 19.265625 -21.109375 C 19.265625 -22.566406 18.832031 -23.734375 17.96875 -24.609375 C 17.113281 -25.484375 15.726562 -25.921875 13.8125 -25.921875 L 8.5625 -25.921875 Z M 8.5625 -16.171875 "/></g></g></g><g fill="#ffffff" fill-opacity="1"><g transform="translate(230.923946, 38.703202)"><g><path d="M 16.828125 0.53125 C 13.734375 0.53125 11.078125 -0.128906 8.859375 -1.453125 C 6.648438 -2.785156 4.945312 -4.640625 3.75 -7.015625 C 2.5625 -9.390625 1.96875 -12.132812 1.96875 -15.25 C 1.96875 -18.363281 2.5625 -21.113281 3.75 -23.5 C 4.945312 -25.894531 6.648438 -27.757812 8.859375 -29.09375 C 11.078125 -30.4375 13.734375 -31.109375 16.828125 -31.109375 C 20.492188 -31.109375 23.5 -30.195312 25.84375 -28.375 C 28.195312 -26.5625 29.664062 -24.007812 30.25 -20.71875 L 24.078125 -20.71875 C 23.703125 -22.375 22.894531 -23.675781 21.65625 -24.625 C 20.414062 -25.570312 18.773438 -26.046875 16.734375 -26.046875 C 13.910156 -26.046875 11.695312 -25.082031 10.09375 -23.15625 C 8.488281 -21.238281 7.6875 -18.601562 7.6875 -15.25 C 7.6875 -11.894531 8.488281 -9.265625 10.09375 -7.359375 C 11.695312 -5.453125 13.910156 -4.5 16.734375 -4.5 C 18.773438 -4.5 20.414062 -4.941406 21.65625 -5.828125 C 22.894531 -6.722656 23.703125 -7.957031 24.078125 -9.53125 L 30.25 -9.53125 C 29.664062 -6.382812 28.195312 -3.921875 25.84375 -2.140625 C 23.5 -0.359375 20.492188 0.53125 16.828125 0.53125 Z M 16.828125 0.53125 "/></g></g></g><g fill="#ffffff" fill-opacity="1"><g transform="translate(269.888246, 38.703202)"><g><path d="M 2.96875 0 L 2.96875 -30.59375 L 22.9375 -30.59375 L 22.9375 -26.09375 L 8.5625 -26.09375 L 8.5625 -17.703125 L 21.640625 -17.703125 L 21.640625 -13.328125 L 8.5625 -13.328125 L 8.5625 -4.5 L 22.9375 -4.5 L 22.9375 0 Z M 2.96875 0 "/></g></g></g></svg>