<svg xmlns="http://www.w3.org/2000/svg" xmlns:xlink="http://www.w3.org/1999/xlink" width="192" zoomAndPan="magnify" viewBox="0 0 144 143.999998" height="192" preserveAspectRatio="xMidYMid meet" version="1.0"><path fill="#ffffff" d="M 28.734375 118.085938 L 30.363281 119.695312 L 30.527344 119.859375 C 35.601562 125.113281 35.546875 133.574219 30.363281 138.757812 C 25.183594 143.9375 16.722656 143.992188 11.46875 138.917969 L 11.304688 138.757812 L 9.675781 137.144531 L 5.234375 132.6875 C 0 127.453125 0 118.882812 5.234375 113.628906 C 10.472656 108.390625 19.058594 108.390625 24.296875 113.628906 Z M 118.632812 44.347656 L 120.207031 42.769531 L 122.019531 40.960938 L 138.632812 24.347656 C 143.867188 19.109375 143.867188 10.539062 138.632812 5.285156 C 133.378906 0.0507812 124.808594 0.0507812 119.574219 5.285156 L 102.960938 21.902344 L 101.148438 23.710938 L 99.574219 25.289062 L 90.042969 34.816406 C 84.808594 40.054688 84.808594 48.625 90.042969 53.878906 L 99.574219 63.40625 L 101.273438 65.09375 L 119.699219 83.515625 C 124.9375 88.753906 133.507812 88.753906 138.761719 83.515625 C 143.996094 78.28125 143.996094 69.695312 138.761719 64.457031 L 120.335938 46.03125 Z M 5.996094 5.414062 L 5.996094 5.394531 C 11.234375 0.160156 19.820312 0.160156 25.054688 5.394531 L 138.507812 118.863281 C 143.761719 124.101562 143.761719 132.6875 138.507812 137.921875 C 133.269531 143.160156 124.699219 143.160156 119.445312 137.921875 L 5.996094 24.453125 C 0.761719 19.21875 0.761719 10.648438 5.996094 5.414062 Z M 5.832031 59.730469 C 11.070312 54.492188 19.640625 54.492188 24.894531 59.730469 L 84.191406 119.027344 C 89.425781 124.261719 89.425781 132.851562 84.191406 138.085938 C 78.9375 143.320312 70.367188 143.320312 65.132812 138.085938 L 46.707031 119.660156 L 18.75 91.707031 L 5.832031 78.789062 C 0.597656 73.550781 0.597656 64.964844 5.832031 59.730469 Z M 5.832031 59.730469 " fill-opacity="1" fill-rule="evenodd"/></svg>